# Blender v2.90.1 OBJ File: 'simple_book.blend'
# www.blender.org
mtllib simple_book.mtl
o Pages_Cube.001
v -5.000000 -0.500000 3.000000
v -5.000000 0.500000 3.000000
v -5.000000 -0.500000 -3.000000
v -5.000000 0.500000 -3.000000
v 5.000000 -0.500000 3.000000
v 5.000000 0.500000 3.000000
v 5.000000 -0.500000 -3.000000
v 5.000000 0.500000 -3.000000
vt 0.375000 0.000000
vt 0.625000 0.000000
vt 0.625000 0.250000
vt 0.375000 0.250000
vt 0.625000 0.500000
vt 0.375000 0.500000
vt 0.625000 0.750000
vt 0.375000 0.750000
vt 0.625000 1.000000
vt 0.375000 1.000000
vt 0.125000 0.500000
vt 0.125000 0.750000
vt 0.875000 0.500000
vt 0.875000 0.750000
vn -1.0000 0.0000 0.0000
vn 0.0000 0.0000 -1.0000
vn 1.0000 0.0000 0.0000
vn 0.0000 0.0000 1.0000
vn 0.0000 -1.0000 0.0000
vn 0.0000 1.0000 0.0000
usemtl Pages
s off
f 1/1/1 2/2/1 4/3/1 3/4/1
f 3/4/2 4/3/2 8/5/2 7/6/2
f 7/6/3 8/5/3 6/7/3 5/8/3
f 5/8/4 6/7/4 2/9/4 1/10/4
f 3/11/5 7/6/5 5/8/5 1/12/5
f 8/5/6 4/13/6 2/14/6 6/7/6
o CoverTop_Cube.002
v -5.100000 0.490000 3.100000
v -5.100000 0.590000 3.100000
v -5.100000 0.490000 -3.100000
v -5.100000 0.590000 -3.100000
v 5.100000 0.490000 3.100000
v 5.100000 0.590000 3.100000
v 5.100000 0.490000 -3.100000
v 5.100000 0.590000 -3.100000
vt 0.027344 0.980469
vt 0.027344 0.980469
vt 0.027344 0.980469
vt 0.027344 0.980469
vt 0.027344 0.980469
vt 0.027344 0.980469
vt 0.027344 0.980469
vt 0.027344 0.980469
vt 0.000000 0.000000
vt 0.000000 1.000000
vt 1.000000 1.000000
vt 1.000000 0.000000
vt 1.000000 0.000000
vt 1.000000 1.000000
vt 0.000000 1.000000
vt 0.000000 0.000000
vn -1.0000 0.0000 0.0000
vn 0.0000 0.0000 -1.0000
vn 1.0000 0.0000 0.0000
vn 0.0000 0.0000 1.0000
vn 0.0000 -1.0000 0.0000
vn 0.0000 1.0000 0.0000
usemtl CoverTop
s off
f 9/15/7 10/16/7 12/17/7 11/18/7
f 11/18/8 12/17/8 16/19/8 15/20/8
f 15/20/9 16/19/9 14/21/9 13/22/9
f 13/22/10 14/21/10 10/16/10 9/15/10
f 11/23/11 15/24/11 13/25/11 9/26/11
f 16/27/12 12/28/12 10/29/12 14/30/12
o CoverSide_Cube.005
v -5.100000 -0.495000 -3.099999
v -5.100000 -0.495000 -2.999999
v -5.100000 0.505000 -3.099999
v -5.100000 0.505000 -2.999999
v 5.100000 -0.495000 -3.099999
v 5.100000 -0.495000 -2.999999
v 5.100000 0.505000 -3.099999
v 5.100000 0.505000 -2.999999
vt 0.036194 0.965189
vt 0.036194 0.965189
vt 0.036194 0.965189
vt 0.036194 0.965189
vt 0.000000 0.000000
vt 1.000000 0.000000
vt 1.000000 1.000000
vt 0.000000 1.000000
vt 0.036194 0.965189
vt 0.036194 0.965189
vt 0.036194 0.965189
vt 0.036194 0.965189
vt 0.000000 0.000000
vt 1.000000 0.000000
vt 1.000000 1.000000
vt 0.000000 1.000000
vt 0.999900 0.999900
vt 0.000100 0.999900
vt 0.000100 0.000100
vt 0.999900 0.000100
vt 0.000071 0.000071
vt 0.999929 0.000071
vt 0.999929 0.500000
vt 0.000071 0.500000
vn -1.0000 0.0000 0.0000
vn 0.0000 1.0000 0.0000
vn 1.0000 0.0000 0.0000
vn 0.0000 -1.0000 0.0000
vn 0.0000 0.0000 -1.0000
vn 0.0000 0.0000 1.0000
usemtl CoverSide
s off
f 17/31/13 18/32/13 20/33/13 19/34/13
f 19/35/14 20/36/14 24/37/14 23/38/14
f 23/39/15 24/40/15 22/41/15 21/42/15
f 21/43/16 22/44/16 18/45/16 17/46/16
f 19/47/17 23/48/17 21/49/17 17/50/17
f 24/51/18 20/52/18 18/53/18 22/54/18
o CoverBottom_Cube.006
v -5.100000 -0.590000 3.100000
v -5.100000 -0.490000 3.100000
v -5.100000 -0.590000 -3.100000
v -5.100000 -0.490000 -3.100000
v 5.100000 -0.590000 3.100000
v 5.100000 -0.490000 3.100000
v 5.100000 -0.590000 -3.100000
v 5.100000 -0.490000 -3.100000
vt 0.027344 0.980469
vt 0.027344 0.980469
vt 0.027344 0.980469
vt 0.027344 0.980469
vt 0.027344 0.980469
vt 0.027344 0.980469
vt 0.027344 0.980469
vt 0.027344 0.980469
vt 0.000000 0.000000
vt 0.000000 1.000000
vt 1.000000 1.000000
vt 1.000000 0.000000
vn -1.0000 0.0000 0.0000
vn 0.0000 0.0000 -1.0000
vn 1.0000 0.0000 0.0000
vn 0.0000 0.0000 1.0000
vn 0.0000 -1.0000 0.0000
vn 0.0000 1.0000 0.0000
usemtl CoverBottom
s off
f 25/55/19 26/56/19 28/57/19 27/58/19
f 27/58/20 28/57/20 32/59/20 31/60/20
f 31/60/21 32/59/21 30/61/21 29/62/21
f 29/62/22 30/61/22 26/56/22 25/55/22
f 27/63/23 31/64/23 29/65/23 25/66/23
f 32/59/24 28/57/24 26/56/24 30/61/24
