# Blender v2.75 (sub 0) OBJ File: ''
# www.blender.org
mtllib preview.mtl
o Dec1
v 0.000000 -0.000000 1.250000
v 1.250000 -0.000000 1.250000
v 1.250000 0.000000 0.000000
v 0.000000 0.000000 0.000000
v 0.000000 -0.000000 2.500000
v 1.250000 -0.000000 2.500000
v 2.500000 -0.000000 1.250000
v 2.500000 0.000000 0.000000
v -1.250000 -0.000000 1.250000
v -1.250000 -0.750000 1.250000
v -1.250000 -0.490000 2.500000
v -1.250000 -0.000000 2.500000
v 0.000000 0.000000 -2.500000
v 0.000000 -0.490000 -2.500000
v -1.250000 -0.490000 -2.500000
v -1.250000 0.000000 -2.500000
v -2.500000 -0.000000 1.250000
v -2.500000 -0.490000 1.250000
v -1.250000 -0.750000 1.250000
v -1.250000 -0.000000 1.250000
v -1.250000 0.000000 -1.250000
v 0.000000 0.000000 -1.250000
v 0.000000 0.000000 -2.500000
v -1.250000 0.000000 -2.500000
v -1.250000 0.000000 -1.250000
v -1.250000 -0.750000 -1.250000
v -2.500000 -0.490000 -1.250000
v -2.500000 0.000000 -1.250000
v -1.250000 0.000000 -2.500000
v -1.250000 -0.490000 -2.500000
v -1.250000 -0.750000 -1.250000
v -1.250000 0.000000 -1.250000
v 1.250000 0.000000 -2.500000
v 1.250000 -0.490000 -2.500000
v 2.500000 -0.000000 1.250000
v 2.500000 -0.490000 1.250000
v 2.500000 -0.490000 -0.000000
v 2.500000 0.000000 0.000000
v 1.250000 0.000000 -1.250000
v 1.250000 -0.750000 -1.250000
v 1.250000 -0.490000 -2.500000
v 1.250000 0.000000 -2.500000
v 1.250000 -0.490000 2.500000
v 1.250000 -0.000000 2.500000
v 0.000000 -0.000000 2.500000
v 0.000000 -0.490000 2.500000
v 1.250000 0.000000 -1.250000
v 1.250000 0.000000 -2.500000
v -2.500000 -0.490000 -0.000000
v -2.500000 0.000000 0.000000
v -2.500000 0.000000 -1.250000
v -2.500000 -0.490000 -1.250000
v 2.500000 0.000000 -1.250000
v 2.500000 -0.490000 -1.250000
v 1.250000 -0.750000 -1.250000
v 1.250000 0.000000 -1.250000
v -2.500000 0.000000 0.000000
v -1.250000 0.000000 0.000000
v -2.500000 0.000000 -1.250000
v 1.250000 -0.000000 1.250000
v 1.250000 -0.750000 1.250000
v 2.500000 -0.490000 1.250000
v 2.500000 -0.000000 1.250000
v 2.500000 -0.490000 -1.250000
v 2.500000 0.000000 -1.250000
v 1.250000 -0.000000 2.500000
v 1.250000 -0.490000 2.500000
v 1.250000 -0.750000 1.250000
v 1.250000 -0.000000 1.250000
v -1.250000 -0.000000 2.500000
v -1.250000 -0.490000 2.500000
v 2.500000 0.000000 -1.250000
v -1.250000 -0.000000 1.250000
v -2.500000 -0.490000 1.250000
v -2.500000 -0.000000 1.250000
v -1.250000 -0.000000 2.500000
v -2.500000 -0.000000 1.250000
v -2.500000 1.240000 -0.250000
v -2.500000 1.240000 0.250000
v -2.500000 2.490000 0.250000
v -2.500000 2.490000 -0.250000
v -2.500000 0.000000 -0.250000
v -2.500000 -0.000000 0.250000
v -2.500000 1.240000 0.250000
v -1.250000 1.240000 0.250000
v -1.250000 2.490000 0.250000
v -2.500000 2.490000 0.250000
v -2.500000 -0.000000 0.250000
v -1.250000 -0.000000 0.250000
v -1.250000 1.240000 -0.250000
v -2.500000 1.240000 -0.250000
v -2.500000 2.490000 -0.250000
v -1.250000 2.490000 -0.250000
v -1.250000 0.000000 -0.250000
v -2.500000 0.000000 -0.250000
v 0.000000 2.490000 0.250000
v 0.000000 2.490000 -0.250000
v -1.250000 2.490000 -0.250000
v -1.250000 2.490000 0.250000
v -2.500000 2.490000 -0.250000
v -2.500000 2.490000 0.250000
v 0.000000 1.240000 0.250000
v 1.240000 1.240000 0.250000
v 1.240000 2.490000 0.250000
v 0.000000 2.490000 0.250000
v 0.000000 -0.000000 0.250000
v 1.240000 -0.000000 0.250000
v 1.240000 1.240000 0.250000
v 1.240000 1.240000 -0.250000
v 1.240000 2.490000 -0.250000
v 1.240000 2.490000 0.250000
v 1.240000 -0.000000 0.250000
v 1.240000 0.000000 -0.250000
v 1.240000 1.240000 -0.250000
v 0.000000 1.240000 -0.250000
v 0.000000 2.490000 -0.250000
v 1.240000 2.490000 -0.250000
v 1.240000 0.000000 -0.250000
v 0.000000 0.000000 -0.250000
v 1.240000 2.490000 0.250000
v 1.240000 2.490000 -0.250000
v 0.010000 2.310000 -1.150000
v 0.010000 2.110000 -0.730000
v 0.600000 2.100000 -0.730000
v 0.650000 2.310000 -1.150000
v 0.010000 1.660000 -0.630000
v 0.480000 1.650000 -0.630000
v 0.010000 1.300000 -0.920000
v 0.380000 1.280000 -0.920000
v 0.010000 1.300000 -1.380000
v 0.380000 1.280000 -1.380000
v 0.010000 1.660000 -1.660000
v 0.480000 1.650000 -1.660000
v 0.010000 2.110000 -1.560000
v 0.600000 2.100000 -1.560000
v 1.100000 1.740000 -0.730000
v 1.250000 1.870000 -1.150000
v 0.740000 1.450000 -0.630000
v 0.460000 1.220000 -0.920000
v 0.460000 1.220000 -1.380000
v 0.740000 1.450000 -1.660000
v 1.100000 1.740000 -1.560000
v 1.240000 0.420000 -0.730000
v 1.440000 0.420000 -1.150000
v 0.790000 0.420000 -0.630000
v 0.430000 0.420000 -0.920000
v 0.430000 0.420000 -1.380000
v 0.790000 0.420000 -1.660000
v 1.240000 0.420000 -1.560000
v 1.240000 0.000000 -0.730000
v 1.440000 0.000000 -1.150000
v 0.790000 0.000000 -0.630000
v 0.430000 0.000000 -0.920000
v 0.430000 0.000000 -1.380000
v 0.790000 0.000000 -1.660000
v 1.240000 0.000000 -1.560000
v 0.260000 2.540000 1.000000
v 0.100000 1.230000 0.720000
v 0.140000 1.140000 1.150000
v 0.320000 2.400000 1.650000
v 1.430000 1.100000 0.570000
v 1.470000 1.000000 1.000000
v 1.590000 2.410000 0.850000
v 1.650000 2.260000 1.500000
v 0.470000 2.440000 0.720000
v 0.340000 1.380000 0.490000
v 1.320000 2.360000 0.630000
v 1.180000 1.300000 0.400000
v 0.470000 2.440000 0.720000
v 1.320000 2.360000 0.630000
v 1.180000 1.300000 0.400000
v 0.340000 1.380000 0.490000
v -1.130000 2.310000 -1.150000
v -1.070000 2.100000 -0.730000
v -0.490000 2.110000 -0.730000
v -0.490000 2.310000 -1.150000
v -0.950000 1.650000 -0.630000
v -0.480000 1.660000 -0.630000
v -0.850000 1.280000 -0.920000
v -0.480000 1.300000 -0.920000
v -0.850000 1.280000 -1.380000
v -0.480000 1.300000 -1.380000
v -0.950000 1.650000 -1.660000
v -0.480000 1.660000 -1.660000
v -1.070000 2.100000 -1.560000
v -0.490000 2.110000 -1.560000
v -1.730000 1.870000 -1.150000
v -1.570000 1.740000 -0.730000
v -1.220000 1.450000 -0.630000
v -0.940000 1.220000 -0.920000
v -0.940000 1.220000 -1.380000
v -1.220000 1.450000 -1.660000
v -1.570000 1.740000 -1.560000
v -1.920000 0.420000 -1.150000
v -1.720000 0.420000 -0.730000
v -1.270000 0.420000 -0.630000
v -0.910000 0.420000 -0.920000
v -0.910000 0.420000 -1.380000
v -1.270000 0.420000 -1.660000
v -1.720000 0.420000 -1.560000
v -1.920000 0.000000 -1.150000
v -1.720000 0.000000 -0.730000
v -1.270000 0.000000 -0.630000
v -0.910000 0.000000 -0.920000
v -0.910000 0.000000 -1.380000
v -1.270000 0.000000 -1.660000
v -1.720000 0.000000 -1.560000
v 0.010000 1.250000 -1.200000
v 0.010000 0.000000 -1.200000
v 0.010000 0.000000 -2.150000
v 0.010000 1.250000 -2.150000
v 0.010000 1.250000 -0.250000
v 0.010000 0.000000 -0.250000
v 0.010000 2.500000 -1.200000
v -0.480000 2.500000 -1.200000
v -0.480000 2.490000 -0.250000
v 0.010000 2.490000 -0.250000
v 0.010000 2.220000 -1.970000
v -0.480000 2.220000 -1.970000
v 0.010000 1.250000 -2.150000
v -0.480000 1.250000 -2.150000
v 0.010000 0.000000 -2.150000
v -0.480000 0.000000 -2.150000
v 0.010000 2.500000 -1.200000
v 0.010000 2.220000 -1.970000
v 0.010000 2.490000 -0.250000
v -0.480000 2.500000 -1.200000
v -0.480000 1.250000 -1.200000
v -0.480000 1.250000 -0.250000
v -0.480000 2.490000 -0.250000
v -0.480000 2.220000 -1.970000
v -0.480000 1.250000 -2.150000
v -0.480000 0.000000 -1.200000
v -0.480000 0.000000 -0.250000
v -0.480000 0.000000 -2.150000
v -1.040000 1.440000 0.260000
v -1.780000 1.440000 0.560000
v -1.720000 1.760000 0.620000
v -1.040000 1.760000 0.340000
v -1.590000 1.780000 0.760000
v -1.040000 1.780000 0.530000
v -1.420000 1.320000 0.920000
v -1.040000 1.320000 0.760000
v -0.500000 1.780000 0.760000
v -0.660000 1.320000 0.920000
v -2.090000 1.440000 1.300000
v -2.000000 1.760000 1.300000
v -1.810000 1.780000 1.300000
v -1.580000 1.320000 1.300000
v -0.370000 1.760000 0.620000
v -1.780000 1.440000 2.040000
v -1.720000 1.760000 1.980000
v -1.590000 1.780000 1.840000
v -1.420000 1.320000 1.680000
v -0.310000 1.440000 0.560000
v -1.040000 1.440000 2.340000
v -1.040000 1.760000 2.260000
v -1.040000 1.780000 2.070000
v -1.040000 1.320000 1.840000
v -0.280000 1.780000 1.300000
v -0.510000 1.320000 1.300000
v -0.310000 1.440000 2.040000
v -0.370000 1.760000 1.980000
v -0.500000 1.780000 1.840000
v -0.660000 1.320000 1.680000
v -0.080000 1.760000 1.300000
v 0.000000 1.440000 1.300000
v -1.040000 1.780000 0.530000
v -1.590000 1.780000 1.840000
v -1.420000 1.320000 1.680000
v -1.040000 1.320000 0.760000
v -0.500000 1.780000 0.760000
v -1.040000 1.780000 2.070000
v -1.040000 1.320000 1.840000
v -0.660000 1.320000 0.920000
v -1.700000 1.470000 0.650000
v -1.040000 1.470000 0.380000
v -1.050000 -0.000000 0.320000
v -1.740000 -0.000000 0.610000
v -1.960000 1.470000 1.300000
v -2.030000 -0.000000 1.300000
v -1.700000 1.470000 1.950000
v -1.740000 -0.000000 2.000000
v -1.040000 1.470000 2.220000
v -1.040000 -0.000000 2.280000
v -0.390000 1.470000 1.950000
v -0.350000 -0.000000 2.000000
v -0.120000 1.470000 1.300000
v -0.060000 -0.000000 1.300000
v -0.390000 1.470000 0.650000
v -0.350000 -0.000000 0.600000
vt 0.250000 0.246094
vt 0.250000 0.000000
vt 0.371094 0.000000
vt 0.371094 0.246094
vt 0.625000 0.246094
vt 0.625000 0.000000
vt 0.746094 0.000000
vt 0.746094 0.246094
vt 0.496094 0.625000
vt 0.496094 0.746094
vt 0.375000 0.746094
vt 0.375000 0.625000
vt 0.250000 0.625000
vt 0.371094 0.625000
vt 0.371094 0.746094
vt 0.250000 0.746094
vt 0.496094 0.621094
vt 0.375000 0.621094
vt 0.375000 0.500000
vt 0.496094 0.500000
vt 0.500000 0.750000
vt 0.746094 0.750000
vt 0.746094 0.996094
vt 0.500000 0.996094
vt 0.343750 0.746094
vt 0.343750 0.718750
vt 0.371094 0.718750
vt 0.125000 0.625000
vt 0.246094 0.625000
vt 0.246094 0.746094
vt 0.125000 0.746094
vt 0.808594 0.246094
vt 0.750000 0.246094
vt 0.750000 0.000000
vt 0.808594 0.000000
vt 0.777344 0.277344
vt 0.750000 0.277344
vt 0.750000 0.250000
vt 0.777344 0.250000
vt 0.902344 0.277344
vt 0.875000 0.277344
vt 0.875000 0.250000
vt 0.902344 0.250000
vt 0.871094 0.277344
vt 0.843750 0.277344
vt 0.843750 0.250000
vt 0.871094 0.250000
vt 0.089844 0.183594
vt 0.062500 0.183594
vt 0.062500 0.156250
vt 0.089844 0.156250
vt 0.625000 0.375000
vt 0.746094 0.375000
vt 0.746094 0.496094
vt 0.625000 0.496094
vt 0.746094 0.371094
vt 0.625000 0.371094
vt 0.625000 0.250000
vt 0.746094 0.250000
vt 0.121094 0.214844
vt 0.000000 0.214844
vt 0.000000 0.125000
vt 0.121094 0.125000
vt 0.121094 0.121094
vt 0.000000 0.121094
vt 0.000000 0.093750
vt 0.121094 0.093750
vt 0.121094 0.089844
vt 0.000000 0.089844
vt 0.000000 0.000000
vt 0.121094 0.000000
vt 0.027344 0.246094
vt 0.000000 0.246094
vt 0.000000 0.218750
vt 0.027344 0.218750
vt 0.121094 0.152344
vt 0.000000 0.152344
vt 0.246094 0.089844
vt 0.125000 0.089844
vt 0.125000 0.000000
vt 0.246094 0.000000
vt 0.996094 0.996094
vt 0.875000 0.996094
vt 0.875000 0.750000
vt 0.996094 0.750000
vt 0.871094 0.996094
vt 0.750000 0.996094
vt 0.750000 0.750000
vt 0.871094 0.750000
vt 0.625000 0.625000
vt 0.746094 0.625000
vt 0.746094 0.746094
vt 0.625000 0.746094
vt 0.746094 0.621094
vt 0.625000 0.621094
vt 0.625000 0.500000
vt 0.746094 0.500000
vt 0.125000 0.500000
vt 0.246094 0.500000
vt 0.000000 0.746094
vt 0.000000 0.500000
vt 0.121094 0.500000
vt 0.121094 0.746094
vt 0.500000 0.625000
vt 0.621094 0.625000
vt 0.621094 0.746094
vt 0.500000 0.746094
vt 0.621094 0.621094
vt 0.500000 0.621094
vt 0.500000 0.500000
vt 0.621094 0.500000
vt 0.500000 0.875000
vt 0.746094 0.875000
vt 0.746094 0.871094
vt 0.500000 0.871094
vt 0.875000 0.875000
vt 0.996094 0.875000
vt 0.996094 0.871094
vt 0.875000 0.871094
vt 0.750000 0.875000
vt 0.871094 0.875000
vt 0.871094 0.871094
vt 0.750000 0.871094
vt 0.125000 0.371094
vt 0.125000 0.250000
vt 0.246094 0.250000
vt 0.246094 0.371094
vt 0.121094 0.250000
vt 0.121094 0.371094
vt 0.000000 0.371094
vt 0.000000 0.250000
vt 0.000000 0.375000
vt 0.121094 0.375000
vt 0.121094 0.496094
vt 0.000000 0.496094
vt 0.125000 0.496094
vt 0.125000 0.375000
vt 0.246094 0.375000
vt 0.246094 0.496094
vn 0.000000 0.000000 -1.000000
vn 1.000000 0.000000 0.000000
vn 0.000000 0.000000 1.000000
vn -1.000000 -0.000000 0.000000
vn 0.000000 1.000000 0.000000
vn 0.007300 0.898500 0.439000
vn 0.004100 0.216400 0.976300
vn -0.022100 -0.620100 0.784200
vn -0.054000 -0.998500 -0.000000
vn -0.021700 -0.606600 -0.794700
vn 0.004100 0.216400 -0.976300
vn 0.007300 0.894200 -0.447600
vn 0.902900 -0.000000 0.429900
vn 0.216900 -0.000000 0.976200
vn -0.627300 -0.000000 0.778800
vn -0.613900 0.000000 -0.789400
vn 0.216900 0.000000 -0.976200
vn 0.898800 0.000000 -0.438400
vn -0.989000 0.096800 0.112200
vn -0.121500 -0.971500 -0.203300
vn 0.988800 -0.096300 -0.113800
vn 0.121700 0.971100 0.205400
vn -0.741200 0.226700 -0.631800
vn 0.059600 0.954100 -0.293400
vn 0.614200 0.090900 -0.783900
vn -0.144100 -0.746500 -0.649600
vn -0.082500 0.221400 -0.971700
vn -0.007400 0.898400 0.439000
vn -0.004100 0.216400 0.976300
vn 0.022100 -0.620100 0.784200
vn 0.054000 -0.998500 -0.000000
vn 0.021700 -0.606600 -0.794700
vn -0.004100 0.216400 -0.976300
vn -0.007300 0.894200 -0.447600
vn -0.902900 0.000000 0.429900
vn -0.216900 -0.000000 0.976200
vn 0.627300 -0.000000 0.778800
vn 0.613900 0.000000 -0.789400
vn -0.216900 0.000000 -0.976200
vn -0.898800 0.000000 -0.438400
vn 0.000000 0.182500 -0.983200
vn -0.367900 0.231500 -0.900600
vn -0.042900 0.993700 -0.103500
vn 0.351000 0.419700 0.837000
vn -0.354800 0.416500 0.837000
vn -0.895400 0.244700 -0.372000
vn -0.105300 0.993500 -0.043200
vn 0.837000 0.424100 0.345700
vn 0.043500 0.993700 -0.103300
vn -0.895400 0.244700 0.372000
vn -0.105300 0.993500 0.043200
vn 0.837000 0.424100 -0.345700
vn 0.372300 0.231500 -0.898800
vn -0.367900 0.231500 0.900600
vn -0.042900 0.993700 0.103500
vn 0.351000 0.419700 -0.837000
vn -0.843500 0.416500 0.339200
vn 0.372300 0.231500 0.898800
vn 0.043500 0.993700 0.103300
vn -0.354800 0.416500 -0.837000
vn 0.102300 0.993800 -0.042800
vn 0.896100 0.231500 0.378600
vn 0.102300 0.993800 0.042800
vn -0.843500 0.416500 -0.339200
vn 0.896100 0.231500 -0.378600
vn 0.905100 0.196000 0.377400
vn 0.908200 -0.186500 0.374700
vn -0.382900 0.037900 -0.923000
vn -0.924400 0.039700 -0.379400
vn -0.925300 0.041000 0.377000
vn -0.374600 0.039800 0.926300
vn 0.379400 0.039700 0.924400
vn 0.923000 0.037900 0.382900
vn 0.923000 0.037900 -0.382900
vn 0.377000 0.038500 -0.925400
vn 0.532800 0.732700 0.423400
vn 0.131400 0.178300 0.975200
vn -0.385100 -0.503600 0.773300
vn -0.600000 -0.800000 -0.000000
vn -0.377000 -0.493000 -0.784100
vn 0.131400 0.178300 -0.975200
vn 0.530500 0.729400 -0.431800
vn 0.911500 0.108600 0.396600
vn 0.233300 0.018900 0.972200
vn -0.670100 -0.007300 0.742300
vn -0.999300 0.037500 0.000000
vn -0.657000 -0.007200 -0.753800
vn 0.233300 0.018900 -0.972200
vn 0.908000 0.108200 -0.404700
vn 0.064700 -0.376000 0.924300
vn -0.530000 0.728700 0.433700
vn -0.131100 0.180200 0.974900
vn 0.370800 -0.513400 0.774000
vn 0.554700 -0.832100 -0.000000
vn 0.362900 -0.502500 -0.784700
vn -0.131100 0.180200 -0.974900
vn -0.527500 0.725300 -0.442300
vn -0.907100 0.111300 0.406000
vn -0.235600 0.020100 0.971600
vn 0.670100 -0.007300 0.742300
vn 0.999300 0.037500 0.000000
vn 0.657000 -0.007200 -0.753800
vn -0.235600 0.020100 -0.971600
vn -0.903400 0.110900 -0.414200
vn 0.000000 0.999900 0.010500
vn 0.000000 0.939800 -0.341700
usemtl 4
s off
f 13/1/1 14/2/1 15/3/1 16/4/1
f 33/5/1 34/6/1 14/7/1 13/8/1
f 35/5/2 36/6/2 37/7/2 38/8/2
f 43/3/3 44/4/3 45/1/3 46/2/3
f 49/7/4 50/8/4 51/5/4 52/6/4
f 38/1/2 37/2/2 64/3/2 65/4/2
f 46/7/3 45/8/3 70/5/3 71/6/3
f 74/3/4 75/4/4 50/1/4 49/2/4
f 78/9/4 79/10/4 80/11/4 81/12/4
f 79/11/4 78/12/4 82/9/4 83/10/4
f 90/13/1 91/14/1 92/15/1 93/16/1
f 91/17/1 90/18/1 94/19/1 95/20/1
f 96/11/5 97/12/5 98/9/5 99/10/5
f 99/11/5 98/12/5 100/9/5 101/10/5
f 108/11/2 109/12/2 110/9/2 111/10/2
f 109/9/2 108/10/2 112/11/2 113/12/2
f 114/21/1 115/22/1 116/23/1 117/24/1
f 115/15/1 114/25/1 118/26/1 119/27/1
f 115/28/1 90/29/1 93/30/1 116/31/1
f 90/17/1 115/18/1 119/19/1 94/20/1
f 97/9/5 96/10/5 120/11/5 121/12/5
f 122/32/6 123/33/6 124/34/6 125/35/6
f 123/32/7 126/33/7 127/34/7 124/35/7
f 126/32/8 128/33/8 129/34/8 127/35/8
f 128/32/9 130/33/9 131/34/9 129/35/9
f 130/32/10 132/33/10 133/34/10 131/35/10
f 132/32/11 134/33/11 135/34/11 133/35/11
f 134/32/12 122/33/12 125/34/12 135/35/12
f 144/32/13 143/33/13 150/34/13 151/35/13
f 143/32/14 145/33/14 152/34/14 150/35/14
f 145/32/15 146/33/15 153/34/15 152/35/15
f 146/32/4 147/33/4 154/34/4 153/35/4
f 147/32/16 148/33/16 155/34/16 154/35/16
f 148/32/17 149/33/17 156/34/17 155/35/17
f 149/32/18 144/33/18 151/34/18 156/35/18
f 157/36/19 158/37/19 159/38/19 160/39/19
f 158/36/20 161/37/20 162/38/20 159/39/20
f 161/40/21 163/41/21 164/42/21 162/43/21
f 163/40/22 157/41/22 160/42/22 164/43/22
f 158/36/23 157/37/23 165/38/23 166/39/23
f 157/44/24 163/45/24 167/46/24 165/47/24
f 163/44/25 161/45/25 168/46/25 167/47/25
f 161/36/26 158/37/26 166/38/26 168/39/26
f 169/48/27 170/49/27 171/50/27 172/51/27
f 173/35/28 174/34/28 175/33/28 176/32/28
f 174/35/29 177/34/29 178/33/29 175/32/29
f 177/35/30 179/34/30 180/33/30 178/32/30
f 179/35/31 181/34/31 182/33/31 180/32/31
f 181/35/32 183/34/32 184/33/32 182/32/32
f 183/35/33 185/34/33 186/33/33 184/32/33
f 185/35/34 173/34/34 176/33/34 186/32/34
f 201/35/35 202/34/35 195/33/35 194/32/35
f 202/35/36 203/34/36 196/33/36 195/32/36
f 203/35/37 204/34/37 197/33/37 196/32/37
f 204/35/2 205/34/2 198/33/2 197/32/2
f 205/35/38 206/34/38 199/33/38 198/32/38
f 206/35/39 207/34/39 200/33/39 199/32/39
f 207/35/40 201/34/40 194/33/40 200/32/40
f 220/52/41 221/53/41 219/54/41 218/55/41
f 221/56/1 220/57/1 222/58/1 223/59/1
f 236/60/42 237/61/42 238/62/42 239/63/42
f 239/64/43 238/65/43 240/66/43 241/67/43
f 241/68/44 240/69/44 242/70/44 243/71/44
f 244/68/45 241/69/45 243/70/45 245/71/45
f 237/60/46 246/61/46 247/62/46 238/63/46
f 238/64/47 247/65/47 248/66/47 240/67/47
f 240/68/48 248/69/48 249/70/48 242/71/48
f 250/64/49 239/65/49 241/66/49 244/67/49
f 246/60/50 251/61/50 252/62/50 247/63/50
f 247/64/51 252/65/51 253/66/51 248/67/51
f 248/68/52 253/69/52 254/70/52 249/71/52
f 255/60/53 236/61/53 239/62/53 250/63/53
f 251/60/54 256/61/54 257/62/54 252/63/54
f 252/64/55 257/65/55 258/66/55 253/67/55
f 253/68/56 258/69/56 259/70/56 254/71/56
f 260/68/57 244/69/57 245/70/57 261/71/57
f 256/60/58 262/61/58 263/62/58 257/63/58
f 257/64/59 263/65/59 264/66/59 258/67/59
f 258/68/60 264/69/60 265/70/60 259/71/60
f 266/64/61 250/65/61 244/66/61 260/67/61
f 262/60/62 267/61/62 266/62/62 263/63/62
f 263/64/63 266/65/63 260/66/63 264/67/63
f 264/64/64 260/65/64 261/70/64 265/71/64
f 267/60/65 255/61/65 250/62/65 266/63/65
f 261/72/5 242/73/5 249/74/5 265/75/5
f 265/72/5 249/73/5 254/74/5 259/75/5
f 261/72/5 245/73/5 243/74/5 242/75/5
f 268/76/66 269/77/66 270/70/66 271/71/66
f 272/76/67 273/77/67 274/70/67 275/71/67
f 276/78/68 277/79/68 278/80/68 279/81/68
f 280/78/69 276/79/69 279/80/69 281/81/69
f 282/78/70 280/79/70 281/80/70 283/81/70
f 284/78/71 282/79/71 283/80/71 285/81/71
f 286/78/72 284/79/72 285/80/72 287/81/72
f 288/78/73 286/79/73 287/80/73 289/81/73
f 290/78/74 288/79/74 289/80/74 291/81/74
f 277/78/75 290/79/75 291/80/75 278/81/75
usemtl 5
f 125/82/76 124/83/76 136/84/76 137/85/76
f 124/86/77 127/87/77 138/88/77 136/89/77
f 127/82/78 129/83/78 139/84/78 138/85/78
f 129/86/79 131/87/79 140/88/79 139/89/79
f 131/86/80 133/87/80 141/88/80 140/89/80
f 133/82/81 135/83/81 142/84/81 141/85/81
f 135/86/82 125/87/82 137/88/82 142/89/82
f 137/82/83 136/83/83 143/84/83 144/85/83
f 136/86/84 138/87/84 145/88/84 143/89/84
f 138/82/85 139/83/85 146/84/85 145/85/85
f 139/82/86 140/83/86 147/84/86 146/85/86
f 140/86/87 141/87/87 148/88/87 147/89/87
f 141/82/88 142/83/88 149/84/88 148/85/88
f 142/86/89 137/87/89 144/88/89 149/89/89
f 164/23/90 160/24/90 159/21/90 162/22/90
f 187/85/91 188/84/91 174/83/91 173/82/91
f 188/89/92 189/88/92 177/87/92 174/86/92
f 189/85/93 190/84/93 179/83/93 177/82/93
f 190/89/94 191/88/94 181/87/94 179/86/94
f 191/89/95 192/88/95 183/87/95 181/86/95
f 192/85/96 193/84/96 185/83/96 183/82/96
f 193/89/97 187/88/97 173/87/97 185/86/97
f 194/85/98 195/84/98 188/83/98 187/82/98
f 195/89/99 196/88/99 189/87/99 188/86/99
f 196/85/100 197/84/100 190/83/100 189/82/100
f 197/85/101 198/84/101 191/83/101 190/82/101
f 198/89/102 199/88/102 192/87/102 191/86/102
f 199/85/103 200/84/103 193/83/103 192/82/103
f 200/89/104 194/88/104 187/87/104 193/86/104
usemtl 3
f 1/90/5 2/91/5 3/92/5 4/93/5
f 2/94/5 1/95/5 5/96/5 6/97/5
f 2/10/5 7/11/5 8/12/5 3/9/5
f 9/31/4 10/98/4 11/99/4 12/30/4
f 17/100/3 18/101/3 19/102/3 20/103/3
f 21/10/5 22/11/5 23/12/5 24/9/5
f 25/31/1 26/98/1 27/99/1 28/30/1
f 29/100/4 30/101/4 31/102/4 32/103/4
f 39/31/2 40/98/2 41/99/2 42/30/2
f 22/10/5 47/11/5 48/12/5 23/9/5
f 53/100/1 54/101/1 55/102/1 56/103/1
f 57/10/5 58/11/5 21/12/5 59/9/5
f 60/31/3 61/98/3 62/99/3 63/30/3
f 58/10/5 4/11/5 22/12/5 21/9/5
f 66/100/2 67/101/2 68/102/2 69/103/2
f 3/19/5 8/20/5 72/17/5 47/18/5
f 4/10/5 3/11/5 47/12/5 22/9/5
f 73/104/5 1/105/5 4/106/5 58/107/5
f 1/108/5 73/109/5 76/110/5 5/111/5
f 77/10/5 73/11/5 58/12/5 57/9/5
f 84/112/3 85/113/3 86/23/3 87/24/3
f 85/114/3 84/115/3 88/21/3 89/22/3
f 102/116/3 103/117/3 104/82/3 105/83/3
f 103/118/3 102/119/3 106/84/3 107/85/3
f 85/120/3 102/121/3 105/86/3 86/87/3
f 102/122/3 85/123/3 89/88/3 106/89/3
f 208/124/2 209/125/2 210/126/2 211/127/2
f 209/128/2 208/129/2 212/130/2 213/131/2
f 214/132/105 215/133/105 216/134/105 217/135/105
f 218/131/106 219/128/106 215/129/106 214/130/106
f 224/136/2 208/137/2 211/138/2 225/139/2
f 208/133/2 224/134/2 226/135/2 212/132/2
f 227/136/4 228/137/4 229/138/4 230/139/4
f 228/133/4 227/134/4 231/135/4 232/132/4
f 228/124/4 233/125/4 234/126/4 229/127/4
f 233/128/4 228/129/4 232/130/4 235/131/4
