# Blender v2.75 (sub 0) OBJ File: ''
# www.blender.org
mtllib preview.mtl
o Dec0
v 2.209022 1.045466 -1.073786
v 2.209022 0.545466 -1.073786
v 2.209022 0.545466 -2.323786
v 2.209022 1.045466 -2.323785
v 1.209022 1.045466 -1.073786
v 2.209022 1.045466 -1.073786
v 2.209022 1.045466 -2.323785
v 1.209022 1.045466 -2.323785
v 2.209022 1.045466 -1.073786
v 2.459022 1.045466 -1.073786
v 2.459022 0.545466 -1.073786
v 2.209022 0.545466 -1.073786
v 2.209022 1.045466 -2.323785
v 2.209022 0.545466 -2.323786
v 1.209022 0.545466 -2.323786
v 1.209022 1.045466 -2.323785
v 1.209022 1.045466 -2.323785
v 1.209022 0.545466 -2.323786
v 1.219022 0.545466 -2.563786
v 1.219022 1.045466 -2.563785
v 1.219022 1.045466 -2.563785
v 1.219022 0.545466 -2.563786
v -0.280978 0.545466 -2.563786
v -0.280978 1.045466 -2.563785
v 2.459022 0.295466 -1.073786
v 1.209022 0.295466 -1.073786
v 1.209022 0.545466 -1.073786
v 2.209022 0.295465 0.176214
v 2.459022 0.295465 0.176214
v 2.459022 1.045465 0.176215
v 2.209022 1.045465 0.176215
v 1.219022 1.045466 -2.563785
v -0.280978 1.045466 -2.563785
v -0.280978 1.045466 -1.073786
v -0.280978 0.545466 -2.563786
v -0.280978 0.545466 -2.323786
v -0.280978 1.035464 -2.323785
v -0.280978 1.045466 -2.563785
v 1.209022 1.045465 0.176215
v 1.209022 1.045465 1.416214
v 2.209022 1.045465 1.416214
v 2.209022 1.045465 0.176215
v 1.209022 1.045465 1.416214
v 1.209022 1.045465 2.666215
v 1.209022 0.295465 2.666214
v 1.209022 0.295465 1.416214
v 1.209022 0.295465 1.416214
v -0.040978 0.295465 1.416214
v -0.040978 0.045465 1.416214
v 1.209022 0.045465 1.416214
v 1.209022 0.225466 1.416214
v 1.209022 0.045465 1.416214
v 1.209022 0.045465 0.176214
v 1.209022 0.225466 0.176214
v 2.459022 1.045465 0.176215
v 2.459022 0.295465 0.176214
v 2.459022 0.295466 -1.073786
v 2.459022 1.045466 -1.073786
v 1.209022 1.045465 0.666215
v 1.209022 1.045465 0.176215
v 1.209022 2.045465 0.176215
v 1.209022 2.045465 0.666215
v 1.209022 3.045465 0.176215
v 1.209022 3.045465 0.666215
v 1.209022 3.045465 0.176215
v -0.040978 3.045465 0.176215
v -0.040978 3.045465 0.666215
v 1.209022 3.045465 0.666215
v -0.040978 0.295465 2.666214
v 1.209022 0.295465 2.666214
v 1.209022 1.045465 2.666215
v -0.040978 1.045465 2.666215
v -0.040978 3.045465 0.666215
v -0.040978 2.045465 0.666215
v 1.209022 2.045465 0.666215
v 1.209022 3.045465 0.666215
v 1.209022 1.545465 0.176215
v 1.209022 1.045466 -1.073786
v 1.209022 1.545466 -1.073785
v 1.209022 1.545465 0.176215
v 1.209022 1.545466 -1.073785
v -0.040978 1.545466 -1.073785
v -0.040978 1.545465 0.176215
v 1.209022 2.045465 0.176215
v 1.209022 1.545465 0.176215
v -0.040978 1.545465 0.176215
v -0.040978 2.045465 0.176215
v -0.040978 3.045465 0.176215
v 1.209022 3.045465 0.176215
v -1.280978 2.045465 0.176215
v -1.280978 3.045465 0.176215
v -0.040978 2.045465 0.176215
v -0.040978 1.545465 0.176215
v -0.040978 1.545466 -1.073785
v -0.040978 2.045466 -1.073785
v -0.040978 2.045466 -1.073785
v -1.280978 2.045466 -1.073785
v -1.280978 2.045465 0.176215
v -0.040978 2.045465 0.176215
v -0.280978 1.295466 -1.073785
v -0.280978 1.295466 -2.323785
v -1.530978 1.295466 -2.323785
v -1.530978 1.295466 -1.073785
v 2.209022 1.045465 1.416214
v 2.209022 0.225466 1.416214
v 2.209022 0.225466 0.176214
v 2.209022 1.045465 0.176215
v -1.280978 2.545465 -1.073785
v -1.280978 1.795466 -1.073785
v -2.530978 1.795466 -1.073785
v -2.530978 2.545465 -1.073785
v -1.530978 1.295466 -2.323785
v -1.530978 0.295466 -2.323786
v -1.530978 0.295466 -1.073786
v -1.530978 1.295466 -1.073785
v -0.280978 1.295466 -2.323785
v -0.280978 1.295466 -1.073785
v -0.280978 1.045466 -1.073786
v -0.280978 1.035464 -2.323785
v -0.780978 2.045465 2.666215
v -0.780978 1.045465 2.666215
v -0.780978 1.045465 1.416214
v -0.780978 2.045465 1.416215
v -1.280978 3.045465 1.416215
v -1.280978 2.045465 1.416215
v -0.780978 2.045465 1.416215
v -0.780978 3.045465 1.416215
v -1.530978 1.045466 -1.073786
v -1.530978 0.295466 -1.073786
v -0.280978 0.295466 -1.073786
v -0.280978 1.045466 -1.073786
v -1.280978 2.545465 -1.073785
v -1.280978 2.545465 0.176215
v -1.280978 2.045465 0.176215
v -1.280978 2.045466 -1.073785
v -1.280978 2.545465 0.176215
v -1.280978 2.545465 -1.073785
v -2.530978 2.545465 -1.073785
v -2.530978 2.545465 0.176215
v -2.280978 2.545465 0.176215
v -2.280978 2.545465 1.416215
v -1.280978 2.545465 1.416215
v -1.280978 2.545465 0.176215
v -1.280978 2.545465 1.416215
v -1.280978 3.045465 1.416215
v -1.280978 3.045465 0.176215
v -2.530978 2.545465 0.176215
v -2.530978 2.545465 -1.073785
v -2.530978 1.795466 -1.073785
v -2.530978 1.795465 0.176215
v -2.280978 2.545465 0.176215
v -2.280978 1.795465 0.176215
v -2.280978 1.795465 1.416215
v -2.280978 2.545465 1.416215
v -2.280978 2.545465 0.176215
v -2.530978 2.545465 0.176215
v -2.530978 1.795465 0.176215
v -2.280978 1.795465 0.176215
v -0.040978 1.295466 -1.073785
v -0.040978 1.045466 -1.073786
v -0.280978 1.045466 -1.073786
v -0.280978 1.295466 -1.073785
v -1.280978 1.295466 -1.073785
v -1.280978 2.045466 -1.073785
v -0.040978 2.045466 -1.073785
v -0.280978 1.295466 -2.323785
v -0.280978 0.295466 -2.323786
v -1.530978 0.295466 -2.323786
v -1.530978 1.295466 -2.323785
v -1.280978 2.045465 2.666215
v -1.280978 1.045465 2.666215
v -0.780978 1.045465 2.666215
v -0.780978 2.045465 2.666215
v -0.040978 0.595464 2.666214
v -0.040978 0.595464 1.416214
v -0.040978 0.295465 1.416214
v -0.040978 0.295465 2.666214
v -1.280978 3.045465 0.666215
v -1.280978 3.045465 0.176215
v 1.209022 1.045465 1.416214
v 1.209022 0.225466 1.416214
v 2.209022 0.225466 1.416214
v 2.209022 1.045465 1.416214
v 2.459022 1.045465 0.176215
v 2.459022 1.045466 -1.073786
v -0.040978 1.045465 2.426215
v -1.280978 1.045465 2.426215
v -1.280978 0.595464 2.426214
v -0.040978 0.595464 2.426214
v -0.040978 1.045465 2.426215
v -0.040978 0.595464 2.426214
v -0.040978 1.045465 2.666215
v -0.040978 1.045465 1.416214
v -0.780978 1.045465 1.416214
v -0.780978 1.045465 2.426215
v -0.040978 1.045465 2.426215
v -1.280978 1.045465 2.426215
v -1.280978 1.045465 1.416214
v -1.280978 0.595464 1.416214
v -1.280978 0.595464 2.426214
v -1.280978 2.045465 2.666215
v -1.280978 2.045465 1.416215
v -1.280978 1.045465 2.666215
v -1.280978 2.045465 2.666215
v -0.780978 2.045465 2.666215
v -0.780978 2.045465 1.416215
v -1.280978 2.045465 1.416215
v -2.280978 2.545465 1.416215
v -2.280978 1.795465 1.416215
v -1.280978 1.795465 1.416215
v -1.280978 2.545465 1.416215
v -0.040978 1.045465 0.666215
v 1.209022 1.045465 0.666215
v -0.040978 1.045465 0.666215
v 1.209022 1.045465 0.666215
v -1.280978 3.045465 1.416215
v -0.780978 3.045465 1.416215
v -0.770978 3.045465 0.666215
v -0.770978 3.045465 0.666215
v -0.780978 3.045465 1.416215
v -0.780978 2.045465 0.676215
v -0.770978 3.045465 0.666215
v -0.780978 2.045465 0.676215
v -0.770978 1.045465 0.676215
v -0.770978 1.045465 0.676215
v -0.770978 1.045465 0.676215
v -1.280978 1.795466 -1.073785
v -1.280978 1.045466 -1.073786
v -1.280978 1.045465 0.176215
v -1.280978 1.795465 0.176215
v -1.280978 2.045465 0.176215
v -1.280978 0.295465 0.176214
v -1.280978 0.295465 1.416214
v -1.280978 0.595464 1.416214
v -1.280978 0.295465 1.416214
v -0.040978 0.595464 1.416214
v -0.040978 0.295465 0.176214
v -0.040978 0.045465 0.176214
v -0.040978 0.045465 1.416214
v -1.280978 1.045465 0.176215
v -0.040978 1.045465 0.176215
v -0.040978 0.295465 0.176214
v -1.280978 0.295465 0.176214
v -1.280978 1.045466 -1.073786
v -1.280978 1.295466 -1.073785
v -1.530978 1.295466 -1.073785
v -0.040978 1.045465 2.666215
v 1.209022 1.045465 2.666215
v 1.209022 1.545466 -1.073785
v 1.209022 1.045466 -1.073786
v -0.040978 1.545466 -1.073785
v 0.509022 1.125463 1.526214
v 0.749022 1.455465 1.416215
v 0.749022 1.855467 1.496215
v 0.329022 1.585466 1.736215
v 0.499022 2.095464 1.716215
v 0.149022 2.035463 1.946215
v 0.129022 1.065466 1.726214
v -0.460978 1.075464 1.206214
v -0.200978 1.135466 0.906215
v 0.509022 1.125463 1.526214
v -0.110978 1.715463 2.026215
v -0.120978 1.305463 1.936215
v 0.129022 1.065466 1.726214
v -0.040978 1.465464 0.726215
v 0.749022 1.455465 1.416215
v -0.120978 1.305463 1.936215
v -0.680978 1.315466 1.456215
v -0.110978 1.715463 2.026215
v -0.710978 1.715463 1.506215
v -0.080978 1.865465 0.776215
v 0.749022 1.855467 1.496215
v 0.149022 2.035463 1.946215
v -0.550978 2.045465 1.326215
v 0.499022 2.095464 1.716215
v -0.290978 2.105467 1.026215
v 0.609022 1.515467 -2.323785
v 0.649022 1.005465 -2.493785
v 0.109022 1.005465 -2.413785
v 0.199022 1.515467 -2.263785
v 0.609022 2.415465 -2.323785
v 0.199022 2.415465 -2.263785
v 0.609022 3.095465 -2.323785
v 0.199022 3.225466 -2.263785
v -0.200978 1.005465 -1.973786
v -0.040978 1.515467 -1.933785
v -0.040978 2.415465 -1.933785
v -0.040978 3.325465 -1.933785
v -0.120978 1.005465 -1.443786
v 0.019022 1.515467 -1.533785
v 0.019022 2.415465 -1.533785
v 0.019022 3.365465 -1.533785
v 0.299022 1.005465 -1.113786
v 0.349022 1.515467 -1.283785
v 0.349022 2.415465 -1.283785
v 0.349022 3.325464 -1.283785
v 0.839022 1.005465 -1.193786
v 0.749022 1.515467 -1.343785
v 0.749022 2.415465 -1.343785
v 0.749022 3.225466 -1.343785
v 1.159022 1.005465 -1.633785
v 0.989022 1.515467 -1.673785
v 0.989022 2.415465 -1.673785
v 0.989022 3.095465 -1.673785
v 1.089022 1.005465 -2.163785
v 0.929022 1.515467 -2.073785
v 0.929022 2.415465 -2.073785
v 0.929022 3.045466 -2.073785
v 0.479022 3.225466 -1.803785
v 0.929022 3.045466 -2.073785
v 0.609022 3.095465 -2.323785
v 0.199022 3.225466 -2.263785
v 0.749022 3.225466 -1.343785
v 0.989022 3.095465 -1.673785
v 0.019022 3.365465 -1.533785
v 0.349022 3.325464 -1.283785
v -0.040978 3.325465 -1.933785
vt 0.750000 0.246094
vt 0.750000 0.187500
vt 0.871094 0.187500
vt 0.871094 0.246094
vt 0.375000 0.371094
vt 0.375000 0.250000
vt 0.496094 0.250000
vt 0.496094 0.371094
vt 0.902344 0.246094
vt 0.875000 0.246094
vt 0.875000 0.187500
vt 0.902344 0.187500
vt 0.996094 0.187500
vt 0.996094 0.246094
vt 0.968750 0.121094
vt 0.968750 0.062500
vt 0.996094 0.062500
vt 0.996094 0.121094
vt 0.750000 0.121094
vt 0.750000 0.062500
vt 0.871094 0.062500
vt 0.871094 0.121094
vt 0.875000 0.152344
vt 0.875000 0.125000
vt 0.996094 0.125000
vt 0.996094 0.152344
vt 0.750000 0.156250
vt 0.777344 0.156250
vt 0.777344 0.246094
vt 0.375000 0.375000
vt 0.496094 0.375000
vt 0.496094 0.496094
vt 0.375000 0.496094
vt 0.871094 0.152344
vt 0.750000 0.152344
vt 0.750000 0.125000
vt 0.871094 0.125000
vt 0.500000 0.496094
vt 0.500000 0.375000
vt 0.621094 0.375000
vt 0.621094 0.496094
vt 0.781250 0.246094
vt 0.781250 0.156250
vt 0.871094 0.156250
vt 0.746094 0.996094
vt 0.625000 0.996094
vt 0.625000 0.968750
vt 0.746094 0.968750
vt 0.781250 0.125000
vt 0.964844 0.125000
vt 0.964844 0.246094
vt 0.625000 0.625000
vt 0.746094 0.625000
vt 0.746094 0.746094
vt 0.625000 0.746094
vt 0.750000 0.000000
vt 0.871094 0.000000
vt 0.875000 0.121094
vt 0.875000 0.000000
vt 0.996094 0.000000
vt 0.875000 0.093750
vt 0.996094 0.093750
vt 0.968750 0.214844
vt 0.968750 0.125000
vt 0.996094 0.214844
vt 0.621094 0.746094
vt 0.500000 0.746094
vt 0.500000 0.625000
vt 0.621094 0.625000
vt 0.839844 0.121094
vt 0.839844 0.000000
vt 0.843750 0.121094
vt 0.843750 0.000000
vt 0.777344 0.125000
vt 0.777344 0.152344
vt 0.500000 0.968750
vt 0.621094 0.968750
vt 0.621094 0.996094
vt 0.500000 0.996094
vt 0.625000 0.496094
vt 0.625000 0.375000
vt 0.746094 0.375000
vt 0.746094 0.496094
vt 0.500000 0.875000
vt 0.621094 0.875000
vt 0.125000 0.996094
vt 0.125000 0.875000
vt 0.246094 0.875000
vt 0.246094 0.996094
vt 0.500000 0.871094
vt 0.500000 0.750000
vt 0.621094 0.750000
vt 0.621094 0.871094
vt 0.125000 0.871094
vt 0.125000 0.750000
vt 0.246094 0.750000
vt 0.246094 0.871094
vt 0.000000 0.496094
vt 0.000000 0.375000
vt 0.121094 0.375000
vt 0.121094 0.496094
vt 0.875000 0.214844
vt 0.750000 0.027344
vt 0.871094 0.027344
vt 0.968750 0.218750
vt 0.996094 0.218750
vt 0.968750 0.246094
vt 0.621094 0.621094
vt 0.500000 0.621094
vt 0.500000 0.500000
vt 0.621094 0.500000
vt 0.750000 0.750000
vt 0.871094 0.750000
vt 0.871094 0.871094
vt 0.750000 0.871094
vt 0.750000 0.875000
vt 0.871094 0.875000
vt 0.871094 0.996094
vt 0.750000 0.996094
vt 0.375000 0.312500
vt 0.496094 0.312500
vt 0.375000 0.000000
vt 0.496094 0.000000
vt 0.496094 0.121094
vt 0.375000 0.121094
vt 0.000000 0.433594
vt 0.027344 0.375000
vt 0.027344 0.433594
vt 0.031250 0.433594
vt 0.031250 0.375000
vt 0.058594 0.375000
vt 0.058594 0.433594
vt 0.187500 0.496094
vt 0.187500 0.281250
vt 0.214844 0.281250
vt 0.214844 0.496094
vt 0.058594 0.437500
vt 0.058594 0.496094
vt 0.031250 0.496094
vt 0.031250 0.437500
vt 0.027344 0.437500
vt 0.027344 0.496094
vt 0.000000 0.437500
vt 0.218750 0.496094
vt 0.218750 0.281250
vt 0.246094 0.281250
vt 0.246094 0.496094
vt 0.156250 0.496094
vt 0.156250 0.281250
vt 0.183594 0.281250
vt 0.183594 0.496094
vt 0.125000 0.496094
vt 0.125000 0.281250
vt 0.152344 0.281250
vt 0.152344 0.496094
vt 0.000000 0.281250
vt 0.027344 0.281250
vt 0.093750 0.496094
vt 0.093750 0.281250
vt 0.121094 0.281250
vt 0.062500 0.496094
vt 0.062500 0.281250
vt 0.089844 0.281250
vt 0.089844 0.496094
vt 0.031250 0.281250
vt 0.058594 0.281250
vt 0.187500 0.089844
vt 0.187500 0.000000
vt 0.214844 0.000000
vt 0.214844 0.089844
vt 0.187500 0.277344
vt 0.187500 0.093750
vt 0.214844 0.093750
vt 0.214844 0.277344
vt 0.218750 0.089844
vt 0.218750 0.000000
vt 0.246094 0.000000
vt 0.246094 0.089844
vt 0.218750 0.277344
vt 0.218750 0.093750
vt 0.246094 0.093750
vt 0.246094 0.277344
vt 0.000000 0.089844
vt 0.000000 0.000000
vt 0.027344 0.000000
vt 0.027344 0.089844
vt 0.000000 0.277344
vt 0.000000 0.093750
vt 0.027344 0.093750
vt 0.027344 0.277344
vt 0.031250 0.089844
vt 0.031250 0.000000
vt 0.058594 0.000000
vt 0.058594 0.089844
vt 0.031250 0.277344
vt 0.031250 0.093750
vt 0.058594 0.093750
vt 0.058594 0.277344
vt 0.062500 0.089844
vt 0.062500 0.000000
vt 0.089844 0.000000
vt 0.089844 0.089844
vt 0.062500 0.277344
vt 0.062500 0.093750
vt 0.089844 0.093750
vt 0.089844 0.277344
vt 0.093750 0.089844
vt 0.093750 0.000000
vt 0.121094 0.000000
vt 0.121094 0.089844
vt 0.093750 0.277344
vt 0.093750 0.093750
vt 0.121094 0.093750
vt 0.121094 0.277344
vt 0.125000 0.089844
vt 0.125000 0.000000
vt 0.152344 0.000000
vt 0.152344 0.089844
vt 0.125000 0.277344
vt 0.125000 0.093750
vt 0.152344 0.093750
vt 0.152344 0.277344
vt 0.156250 0.089844
vt 0.156250 0.000000
vt 0.183594 0.000000
vt 0.183594 0.089844
vt 0.156250 0.277344
vt 0.156250 0.093750
vt 0.183594 0.093750
vt 0.183594 0.277344
vt 0.621094 0.121094
vt 0.500000 0.121094
vt 0.500000 0.000000
vt 0.621094 0.000000
vn 1.000000 -0.000000 0.000000
vn 0.000000 1.000000 0.000000
vn 0.000000 0.000000 -1.000000
vn 0.999100 0.000000 0.041600
vn 0.000000 -0.000000 1.000000
vn -1.000000 0.000000 0.000000
vn 1.000000 -0.005000 0.006700
vn 0.006800 0.005000 1.000000
vn 1.000000 0.005000 0.006800
vn 0.013600 0.000100 0.999900
vn 0.568300 -0.153600 0.808300
vn 0.562400 -0.155600 0.812100
vn 0.090900 -0.988500 -0.120900
vn 0.498600 -0.196000 0.844400
vn 0.491900 -0.205500 0.846100
vn 0.527200 -0.588800 -0.612700
vn -0.395300 -0.807200 0.438400
vn -0.646700 -0.145400 0.748700
vn 0.649800 0.153500 -0.744400
vn -0.531000 0.587400 0.610700
vn -0.091200 0.988700 0.118900
vn 0.393000 0.807400 -0.440000
vn -0.139000 0.302600 -0.942900
vn -0.144800 0.000000 -0.989500
vn -0.777700 0.294100 -0.555500
vn -0.808700 0.000000 -0.588200
vn -0.947600 0.285700 0.142700
vn -0.988900 -0.000000 0.148300
vn -0.583400 0.301000 0.754400
vn -0.603900 -0.000000 0.797100
vn 0.140500 0.301400 0.943100
vn 0.148300 -0.000000 0.988900
vn 0.771200 0.301100 0.560900
vn 0.808700 -0.000000 0.588200
vn 0.941300 0.311000 -0.131600
vn 0.988900 0.000000 -0.148300
vn 0.577500 0.306100 -0.756800
vn 0.615600 0.000000 -0.788000
vn 0.276900 0.946200 -0.167300
vn 0.282600 0.945200 -0.163400
vn 0.219500 0.966800 -0.131000
vn 0.218800 0.966900 -0.131500
usemtl 0
s off
f 1/1/1 2/2/1 3/3/1 4/4/1
f 5/5/2 6/6/2 7/7/2 8/8/2
f 9/9/3 10/10/3 11/11/3 12/12/3
f 13/10/3 14/11/3 15/13/3 16/14/3
f 17/15/4 18/16/4 19/17/4 20/18/4
f 21/19/3 22/20/3 23/21/3 24/22/3
f 11/23/3 25/24/3 26/25/3 27/26/3
f 28/27/5 29/28/5 30/29/5 31/1/5
f 5/30/2 32/31/2 33/32/2 34/33/2
f 35/16/6 36/17/6 37/18/6 38/15/6
f 43/14/1 44/10/1 45/24/1 46/25/1
f 47/34/5 48/35/5 49/36/5 50/37/5
f 51/38/1 52/39/1 53/40/1 54/41/1
f 55/42/1 56/43/1 57/44/1 58/4/1
f 65/45/2 66/46/2 67/47/2 68/48/2
f 69/49/5 70/37/5 71/4/5 72/42/5
f 84/19/3 85/20/3 86/21/3 87/22/3
f 87/37/3 88/4/3 89/1/3 84/36/3
f 87/24/3 90/50/3 91/51/3 88/10/3
f 100/52/2 101/53/2 102/54/2 103/55/2
f 104/19/1 105/56/1 106/57/1 107/22/1
f 108/58/3 109/59/3 110/60/3 111/18/3
f 112/10/6 113/24/6 114/50/6 115/51/6
f 116/18/1 117/58/1 118/61/1 119/62/1
f 124/45/5 125/46/5 126/47/5 127/48/5
f 128/63/5 129/64/5 130/25/5 131/65/5
f 140/66/2 141/67/2 142/68/2 136/69/2
f 143/11/6 144/13/6 145/14/6 146/10/6
f 147/70/6 148/19/6 149/56/6 150/71/6
f 151/1/6 152/36/6 153/37/6 154/4/6
f 155/22/5 156/72/5 157/73/5 158/57/5
f 159/35/3 160/36/3 161/74/3 162/75/3
f 163/44/3 164/4/3 165/1/3 159/27/3
f 166/1/3 167/36/3 168/37/3 169/4/3
f 174/75/6 175/35/6 176/36/6 177/74/6
f 178/76/2 67/77/2 66/78/2 179/79/2
f 180/58/5 181/59/5 182/60/5 183/18/5
f 39/38/2 184/39/2 185/40/2 5/41/2
f 186/14/5 187/10/5 188/11/5 189/13/5
f 190/1/6 191/27/6 174/28/6 192/29/6
f 193/8/2 194/5/2 195/6/2 196/7/2
f 197/4/6 198/1/6 199/2/6 200/3/6
f 201/22/6 202/19/6 198/56/6 203/57/6
f 204/79/2 205/76/2 206/77/2 207/78/2
f 208/10/5 209/24/5 210/25/5 211/14/5
f 212/80/2 193/81/2 40/82/2 213/83/2
f 178/78/2 216/79/2 217/76/2 218/77/2
f 219/78/7 220/79/7 123/84/7 221/85/7
f 222/86/8 223/87/8 74/88/8 73/89/8
f 123/90/9 122/91/9 224/92/9 221/93/9
f 223/94/10 225/95/10 214/96/10 74/97/10
f 226/98/2 194/99/2 193/100/2 212/101/2
f 227/102/6 228/24/6 229/25/6 230/65/6
f 231/58/6 229/59/6 198/60/6 202/18/6
f 229/10/6 232/24/6 233/25/6 198/14/6
f 234/103/5 235/56/5 48/57/5 236/104/5
f 176/23/6 237/26/6 238/25/6 239/24/6
f 240/4/3 241/1/3 242/36/3 243/37/3
f 128/105/5 244/106/5 245/14/5 246/107/5
f 193/108/2 247/109/2 248/110/2 40/111/2
usemtl 2
f 59/112/1 60/113/1 61/114/1 62/115/1
f 62/116/1 61/117/1 63/118/1 64/119/1
f 73/67/5 74/68/5 75/69/5 76/66/5
f 77/5/1 60/120/1 78/121/1 79/8/1
f 80/122/2 81/123/2 82/124/2 83/125/2
f 92/5/1 93/120/1 94/121/1 95/8/1
f 96/123/2 97/124/2 98/125/2 99/122/2
f 120/108/1 121/111/1 122/110/1 123/109/1
f 132/8/1 133/5/1 134/120/1 135/121/1
f 136/30/2 137/31/2 138/32/2 139/33/2
f 170/115/5 171/112/5 172/113/5 173/114/5
f 74/109/5 214/110/5 215/111/5 75/108/5
f 249/5/3 250/120/3 160/121/3 251/8/3
f 252/126/11 253/99/11 254/127/11 255/128/11
f 255/129/12 254/130/12 256/131/12 257/132/12
f 258/133/13 259/134/13 260/135/13 261/136/13
f 257/137/14 262/138/14 263/139/14 255/140/14
f 255/141/15 263/142/15 264/98/15 252/143/15
f 261/144/16 260/145/16 265/146/16 266/147/16
f 267/148/17 268/149/17 259/150/17 258/151/17
f 269/152/18 270/153/18 268/154/18 267/155/18
f 266/98/19 265/156/19 271/157/19 272/142/19
f 273/158/20 274/159/20 270/160/20 269/101/20
f 275/161/21 276/162/21 274/163/21 273/164/21
f 272/139/22 271/165/22 276/166/22 275/138/22
f 277/167/23 278/168/23 279/169/23 280/170/23
f 281/171/24 277/172/24 280/173/24 282/174/24
f 283/133/24 281/134/24 282/135/24 284/136/24
f 280/175/25 279/176/25 285/177/25 286/178/25
f 282/179/26 280/180/26 286/181/26 287/182/26
f 284/144/26 282/145/26 287/146/26 288/147/26
f 286/183/27 285/184/27 289/185/27 290/186/27
f 287/187/28 286/188/28 290/189/28 291/190/28
f 288/98/28 287/156/28 291/157/28 292/142/28
f 290/191/29 289/192/29 293/193/29 294/194/29
f 291/195/30 290/196/30 294/197/30 295/198/30
f 292/139/30 291/165/30 295/166/30 296/138/30
f 294/199/31 293/200/31 297/201/31 298/202/31
f 295/203/32 294/204/32 298/205/32 299/206/32
f 296/161/32 295/162/32 299/163/32 300/164/32
f 298/207/33 297/208/33 301/209/33 302/210/33
f 299/211/34 298/212/34 302/213/34 303/214/34
f 300/158/34 299/159/34 303/160/34 304/101/34
f 302/215/35 301/216/35 305/217/35 306/218/35
f 303/219/36 302/220/36 306/221/36 307/222/36
f 304/152/36 303/153/36 307/154/36 308/155/36
f 306/223/37 305/224/37 278/225/37 277/226/37
f 307/227/38 306/228/38 277/229/38 281/230/38
f 308/148/38 307/149/38 281/150/38 283/151/38
f 309/141/39 310/142/39 311/98/39 312/143/39
f 313/137/40 314/138/40 310/139/40 309/140/40
f 309/129/41 315/130/41 316/131/41 313/132/41
f 312/126/42 317/99/42 315/127/42 309/128/42
usemtl 1
f 39/231/2 40/232/2 41/233/2 42/234/2
